<svg width="171" height="26" viewBox="0 0 171 26" fill="none" xmlns="http://www.w3.org/2000/svg">
<path d="M38.7093 0.439635V11.6269C38.7093 11.8701 38.5129 12.0694 38.2696 12.0694H32.8856V7.59103H30.8603V17.9371H32.4987C32.742 17.9371 32.9413 18.1335 32.9413 18.3767V25.0885C32.9413 25.3318 32.7449 25.5281 32.4987 25.5281H18.2135C17.9702 25.5281 17.7739 25.3318 17.7739 25.0885V18.3767C17.7739 18.1335 17.9702 17.9371 18.2135 17.9371H19.8929V7.59103H17.8677V12.0665H12.4426C12.1993 12.0665 12 11.8701 12 11.6239V0.439635C12 0.19637 12.1964 0 12.4426 0H38.2696C38.5129 0 38.7093 0.19637 38.7093 0.439635Z" fill="#545EDD"/>
<path d="M67.9538 19.555V25.0885C67.9538 25.3318 67.7575 25.5281 67.5142 25.5281H60.8405C58.9208 25.5281 56.7725 24.9097 56.3006 23.5234L50.8843 7.78447V7.78154V7.7786C50.7084 7.29501 50.3245 7.00778 49.8585 7.00778C49.75 7.00778 49.6416 7.02243 49.5273 7.05467H49.5214H49.5185C49.2547 7.13381 49.0378 7.31259 48.9118 7.55879C48.7652 7.84015 48.7477 8.18014 48.859 8.51719L54.6329 25.5281H41.5728C41.3295 25.5281 41.1332 25.3318 41.1332 25.0914L41.1713 18.3767C41.1713 18.1335 41.3676 17.9371 41.6109 17.9371H43.3314V17.5913L43.2932 7.89584L43.2903 7.55292H41.6519C41.4087 7.55292 41.2123 7.35655 41.2123 7.10743L41.1332 0.439635C41.1332 0.19637 41.3295 0 41.5728 0H57.98C61.3916 0 63.9737 1.02288 65.6589 3.0452C66.9691 4.61616 67.7018 6.81434 67.7252 9.23233C67.7252 11.1257 67.3911 14.4962 65.1519 15.7624L64.8969 15.906L64.9966 16.1815L65.9784 18.8896L66.0605 19.1153H67.5201C67.7545 19.1153 67.9538 19.3117 67.9538 19.555Z" fill="#545EDD"/>
<path d="M90.0351 7.59103H83.5754V9.65438H88.0099V15.9118H83.5754V17.9371H90.0351V14.168H96.5974C96.8406 14.168 97.037 14.3643 97.037 14.6105V25.0914C97.037 25.3347 96.8406 25.5311 96.5974 25.5311H70.8084C70.5651 25.5311 70.3688 25.3347 70.3688 25.0914V18.3797C70.3688 18.1364 70.5651 17.94 70.8084 17.94H72.4878V7.59396H70.8084C70.5651 7.59396 70.3688 7.39759 70.3688 7.15432V0.442564C70.3688 0.1993 70.5651 0.00292969 70.8084 0.00292969H96.5974C96.8406 0.00292969 97.037 0.1993 97.037 0.442564V11.6679C97.037 11.9112 96.8406 12.1075 96.5974 12.1075H90.0351V7.59103Z" fill="#545EDD"/>
<path d="M126.202 11.8174L126.085 25.0885C126.085 25.3699 125.927 25.5281 125.646 25.5281L99.9357 25.5692C99.6925 25.5692 99.4961 25.3728 99.4961 25.1266V19.7513C99.4961 19.2091 99.6602 18.6845 99.8918 18.4793L99.8947 18.4764L99.8976 18.4735L109.786 9.21181C110.065 8.95976 110.223 8.64322 110.232 8.32082C110.238 8.05411 110.141 7.80205 109.954 7.6174L109.915 7.57637L109.898 7.56172L109.877 7.54706C109.666 7.38879 109.426 7.30673 109.18 7.30673C108.904 7.30673 108.643 7.40931 108.421 7.60275L108.418 7.60568L108.415 7.60861L100.762 14.6721C100.583 14.8333 100.378 14.9183 100.173 14.9183C99.8156 14.9183 99.4551 14.6369 99.4551 14.1064L99.5723 0.442564C99.5723 0.1993 99.7687 0.00292969 100.012 0.00292969H125.681C125.924 0.00292969 126.123 0.1993 126.123 0.442564V5.89697C126.123 6.45091 125.947 6.91106 125.599 7.25983L116.22 16.1258L116.214 16.1317C115.927 16.4189 115.771 16.7794 115.795 17.1223C115.812 17.3978 115.941 17.6469 116.161 17.8199C116.378 18.0074 116.63 18.1042 116.891 18.1042C117.155 18.1042 117.41 18.0045 117.627 17.8111L117.633 17.8081L117.635 17.8052L124.667 11.2869C124.907 11.0553 125.185 10.9293 125.449 10.9293C125.901 10.9293 126.202 11.2869 126.202 11.8174Z" fill="#545EDD"/>
<path d="M158.548 0.439635V7.11329C158.548 7.35655 158.351 7.55292 158.105 7.55292H156.467V9.1532C156.467 14.6545 156.124 18.6317 154.421 21.4571C152.551 24.558 149.072 26 143.465 26C140.493 26 138.163 25.6073 136.346 24.7983C134.684 24.0597 133.456 22.9665 132.592 21.46C130.877 18.4793 130.739 14.1592 130.739 9.23526V7.55586H129.06C128.817 7.55586 128.62 7.35949 128.62 7.11622V0.439635C128.62 0.19637 128.817 0 129.06 0H141.974C142.217 0 142.413 0.19637 142.413 0.439635V17.0432C142.413 18.239 143.202 18.3679 143.542 18.3679C143.882 18.3679 144.67 18.239 144.67 17.0432L144.708 0.439635C144.708 0.19637 144.904 0 145.151 0H158.102C158.348 0 158.548 0.19637 158.548 0.439635Z" fill="#545EDD"/>
</svg>
