<svg width="48" height="26" viewBox="0 0 48 26" fill="none" xmlns="http://www.w3.org/2000/svg">
<path d="M39.203 0.447761V11.8418C39.203 12.0896 39.003 12.2925 38.7552 12.2925H33.2716V7.73134H31.209V18.2687H32.8776C33.1254 18.2687 33.3284 18.4687 33.3284 18.7164V25.5522C33.3284 25.8 33.1284 26 32.8776 26H18.3284C18.0806 26 17.8806 25.8 17.8806 25.5522V18.7164C17.8806 18.4687 18.0806 18.2687 18.3284 18.2687H20.0388V7.73134H17.9761V12.2896H12.4507C12.203 12.2896 12 12.0896 12 11.8388V0.447761C12 0.2 12.2 0 12.4507 0H38.7552C39.003 0 39.203 0.2 39.203 0.447761Z" fill="#545EDD"/>
</svg>
